<svg xmlns="http://www.w3.org/2000/svg" viewBox="0 0 24 24" fill="#e4405f">
  <path d="M12 2.2c3.2 0 3.584.012 4.85.07 1.366.062 2.633.35 3.608 1.325.975.975 1.263 2.242 1.325 3.608.058 1.266.07 1.65.07 4.85s-.012 3.584-.07 4.85c-.062 1.366-.35 2.633-1.325 3.608-.975.975-2.242 1.263-3.608 1.325-1.266.058-1.65.07-4.85.07s-3.584-.012-4.85-.07c-1.366-.062-2.633-.35-3.608-1.325-.975-.975-1.263-2.242-1.325-3.608C2.212 15.584 2.2 15.2 2.2 12s.012-3.584.07-4.85c.062-1.366.35-2.633 1.325-3.608C4.57 2.62 5.837 2.332 7.203 2.27 8.469 2.212 8.85 2.2 12 2.2m0-2.2C8.735 0 8.332.014 7.052.072 5.769.13 4.512.392 3.464 1.44 2.416 2.488 2.154 3.745 2.096 5.028.014 8.332 0 8.735 0 12s.014 3.668.072 4.948c.058 1.283.32 2.54 1.368 3.588s2.305 1.31 3.588 1.368c1.28.058 1.683.072 4.948.072s3.668-.014 4.948-.072c1.283-.058 2.54-.32 3.588-1.368s1.31-2.305 1.368-3.588c.058-1.28.072-1.683.072-4.948s-.014-3.668-.072-4.948c-.058-1.283-.32-2.54-1.368-3.588S17.283.13 16 .072C14.72.014 14.317 0 12 0z"/>
  <path d="M12 5.838a6.162 6.162 0 100 12.324 6.162 6.162 0 000-12.324zm0 10.162a3.999 3.999 0 110-7.998 3.999 3.999 0 010 7.998z"/>
  <circle cx="18.406" cy="5.594" r="1.44"/>
</svg>
