<svg xmlns="http://www.w3.org/2000/svg" width="24" height="24" fill="#0A66C2" viewBox="0 0 24 24">
  <path d="M19 0h-14c-2.762 0-5 2.238-5 5v14c0 2.762 2.238 5 5 5h14c2.762 0 5-2.238 5-5v-14c0-2.762-2.238-5-5-5zm-11 20h-3v-11h3v11zm-1.5-12.248c-.966 0-1.75-.785-1.75-1.75s.784-1.75 1.75-1.75 1.75.785 1.75 1.75-.784 1.75-1.75 1.75zm13.5 12.248h-3v-5.595c0-1.336-.029-3.057-1.864-3.057-1.865 0-2.151 1.456-2.151 2.958v5.694h-3v-11h2.887v1.503h.041c.402-.766 1.385-1.57 2.852-1.57 3.051 0 3.612 2.009 3.612 4.623v6.441z"/>
</svg>