<svg xmlns="http://www.w3.org/2000/svg" viewBox="0 0 24 24" fill="#1da1f2">
  <path d="M24 4.557a9.93 9.93 0 01-2.828.775 4.932 4.932 0 002.165-2.724c-.951.566-2.005.978-3.127 1.2a4.916 4.916 0 00-8.38 4.482C7.69 8.095 4.067 6.13 1.64 3.161a4.822 4.822 0 00-.666 2.475c0 1.708.87 3.213 2.188 4.096a4.904 4.904 0 01-2.228-.616v.06a4.919 4.919 0 003.946 4.827 4.996 4.996 0 01-2.224.085 4.935 4.935 0 004.6 3.417 9.867 9.867 0 01-6.102 2.105c-.396 0-.787-.023-1.175-.069a13.945 13.945 0 007.548 2.212c9.057 0 14.01-7.506 14.01-14.01 0-.213-.005-.425-.014-.636A10.012 10.012 0 0024 4.557z"/>
</svg>
