<svg xmlns="http://www.w3.org/2000/svg" viewBox="0 0 448 512" fill="#E4405F">
  <path d="M224,202.66A53.34,53.34,0,1,0,277.34,256,53.38,53.38,0,0,0,224,202.66Zm124.71-41a54,54,0,0,0-30.21-30.21C295.91,123.51,224,123.2,224,123.2s-71.91.31-94.5,8.25a54,54,0,0,0-30.21,30.21c-7.93,22.59-8.25,94.5-8.25,94.5s.32,71.91,8.25,94.5a54,54,0,0,0,30.21,30.21c22.59,7.93,94.5,8.25,94.5,8.25s71.91-.32,94.5-8.25a54,54,0,0,0,30.21-30.21c7.93-22.59,8.25-94.5,8.25-94.5S356.64,184.25,348.71,161.66ZM224,338.66A82.66,82.66,0,1,1,306.66,256,82.77,82.77,0,0,1,224,338.66ZM336,179.2a19.2,19.2,0,1,1,19.2-19.2A19.2,19.2,0,0,1,336,179.2Z"/>
</svg>
